<?xml version="1.0" encoding="UTF-8"?>
<svg id="Layer_2" data-name="Layer 2" xmlns="http://www.w3.org/2000/svg" viewBox="0 0 844.51 964.94">
  <defs>
    <style>
      .cls-1 {
        fill: #dfe1e5;
      }

      .cls-2 {
        fill: red;
      }
    </style>
  </defs>
  <g id="Layer_2-2" data-name="Layer 2">
    <g>
      <path class="cls-2" d="M455.2,438.62s-179.69-79.35-286.7,102.88c0,0,7.16-256.41,286.7-102.88Z"/>
      <path class="cls-1" d="M253,783.03v-223.16c0-48.07,38.97-87.03,87.03-87.03h50.34c20.38,0,38.62,4.51,54.73,13.52,16.1,9.01,28.8,21.35,38.11,37,9.3,15.66,13.96,33.68,13.96,54.06s-4.65,39.66-13.96,56.06c-9.31,16.4-22.01,29.32-38.11,38.77-16.1,9.46-34.34,14.18-54.73,14.18h-49.63v96.6h-87.74Zm86.41-172.38h35.89c6.2,0,11.67-1.25,16.4-3.77,4.72-2.51,8.49-6.13,11.3-10.86,2.8-4.72,4.21-10.48,4.21-17.28s-1.4-12.41-4.21-16.84c-2.81-4.43-6.58-7.76-11.3-9.97-4.73-2.21-10.19-3.32-16.4-3.32h-35.89v62.04Z"/>
      <path class="cls-1" d="M820.75,360.87L395.73,14.51c-27.62-22.51-68.27-18.37-90.78,9.26L74.46,306.59c-115.54,141.78-94.27,350.38,47.51,465.93l13.57,11.06-3.69-4.78c-1.84-2.38-3.88-4.6-6.14-6.59-95.96-84.18-108.78-229.9-27.48-329.66l167.89-206.02c23.19-28.45,65.05-32.72,93.5-9.53l290.29,236.57c28.45,23.19,32.72,65.05,9.53,93.5l-276.49,339.28c-23.19,28.45-65.05,32.72-93.5,9.53h0c-1.55-1.26-3.27-2.29-5.12-3.04l-4.94-2.03,60.9,49.63c27.62,22.51,68.27,18.37,90.78-9.26l398.93-489.53c22.51-27.62,18.37-68.27-9.26-90.78Z"/>
    </g>
  </g>
</svg>