<?xml version="1.0" encoding="UTF-8"?>
<svg id="Layer_2" data-name="Layer 2" xmlns="http://www.w3.org/2000/svg" viewBox="0 0 680 776.97">
  <defs>
    <style>
      .cls-1 {
        fill: #dfe1e5;
      }

      .cls-2 {
        fill: red;
      }
    </style>
  </defs>
  <g id="Layer_2-2" data-name="Layer 2">
    <g>
      <path class="cls-2" d="M366.53,353.18s-144.69-63.89-230.85,82.84c0,0,5.77-206.46,230.85-82.84Z"/>
      <path class="cls-1" d="M203.72,630.49v-179.69c0-38.7,31.38-70.08,70.08-70.08h40.53c16.41,0,31.1,3.63,44.07,10.88,12.96,7.26,23.19,17.19,30.69,29.79,7.49,12.61,11.24,27.12,11.24,43.53s-3.75,31.93-11.24,45.14c-7.49,13.2-17.72,23.61-30.69,31.22-12.97,7.61-27.65,11.42-44.07,11.42h-39.96v77.78h-70.65Zm69.58-138.8h28.9c5,0,9.39-1.01,13.2-3.03,3.8-2.02,6.83-4.93,9.1-8.74,2.26-3.8,3.39-8.44,3.39-13.91s-1.13-9.99-3.39-13.56c-2.26-3.57-5.3-6.24-9.1-8.03-3.81-1.78-8.21-2.68-13.2-2.68h-28.9v49.95Z"/>
      <path class="cls-1" d="M660.86,290.57L318.64,11.68c-22.24-18.13-54.97-14.79-73.1,7.45L59.96,246.87c-93.04,114.16-75.91,282.13,38.26,375.16l10.93,8.9-2.97-3.85c-1.48-1.92-3.12-3.71-4.95-5.3-77.27-67.78-87.59-185.12-22.13-265.45L214.28,190.45c18.67-22.91,52.37-26.35,75.28-7.68l233.74,190.49c22.91,18.67,26.35,52.37,7.68,75.28l-222.63,273.19c-18.67,22.91-52.37,26.35-75.28,7.68h0c-1.25-1.01-2.63-1.84-4.12-2.45l-3.98-1.63,49.04,39.96c22.24,18.13,54.97,14.79,73.09-7.45l321.22-394.17c18.13-22.24,14.79-54.97-7.45-73.09Z"/>
    </g>
    <g>
      <path class="cls-1" d="M469.19,698.02l-2.16-5.37,13.57-15.01c.74-.79,1.54-1.7,2.39-2.75,.85-1.05,1.68-2.13,2.49-3.24,.81-1.11,1.45-2.2,1.93-3.24,.48-1.05,.72-2.03,.72-2.95,0-1-.22-1.89-.66-2.65-.44-.76-1.07-1.37-1.9-1.8-.83-.44-1.86-.66-3.08-.66-1.14,0-2.21,.3-3.21,.88-1.01,.59-1.94,1.45-2.82,2.59-.87,1.14-1.64,2.51-2.29,4.13l-7.34-4.06c.87-2.53,2.12-4.75,3.74-6.65,1.62-1.9,3.54-3.37,5.77-4.42s4.61-1.57,7.14-1.57c2.66,0,5.07,.56,7.21,1.67,2.14,1.11,3.82,2.65,5.05,4.62,1.22,1.97,1.83,4.24,1.83,6.82,0,.96-.1,1.94-.29,2.95-.2,1.01-.52,2.05-.98,3.15-.46,1.09-1.05,2.24-1.77,3.44-.72,1.2-1.59,2.47-2.62,3.8s-2.2,2.72-3.51,4.16l-10.42,11.34-1.31-4h22.81v8.85h-30.28Z"/>
      <path class="cls-1" d="M508.64,698.75c-1.7,0-3.01-.48-3.93-1.44-.92-.96-1.38-2.34-1.38-4.13,0-1.62,.49-2.94,1.47-3.97,.98-1.03,2.26-1.54,3.83-1.54,1.66,0,2.95,.48,3.87,1.44,.92,.96,1.38,2.32,1.38,4.06s-.48,3-1.44,4.03c-.96,1.03-2.23,1.54-3.8,1.54Z"/>
      <path class="cls-1" d="M538.07,698.68c-3.93,0-7.29-.94-10.06-2.82-2.77-1.88-4.89-4.58-6.36-8.09-1.46-3.52-2.19-7.74-2.19-12.68s.73-9.16,2.19-12.68c1.46-3.52,3.58-6.21,6.36-8.09,2.77-1.88,6.13-2.82,10.06-2.82s7.3,.94,10.09,2.82c2.8,1.88,4.93,4.58,6.39,8.09,1.46,3.52,2.2,7.74,2.2,12.68s-.73,9.16-2.2,12.68c-1.46,3.52-3.59,6.22-6.39,8.09-2.8,1.88-6.16,2.82-10.09,2.82Zm0-8.45c2.97,0,5.25-1.31,6.85-3.93s2.39-6.36,2.39-11.21-.8-8.74-2.39-11.4-3.88-4-6.85-4-5.25,1.33-6.85,4-2.39,6.47-2.39,11.4,.8,8.59,2.39,11.21,3.88,3.93,6.85,3.93Z"/>
    </g>
  </g>
</svg>