<?xml version="1.0" encoding="UTF-8"?>
<svg id="Layer_2" data-name="Layer 2" xmlns="http://www.w3.org/2000/svg" viewBox="0 0 968.14 201.67">
  <defs>
    <style>
      .cls-1 {
        fill: #dfe1e5;
      }

      .cls-2 {
        fill: red;
      }
    </style>
  </defs>
  <g id="Layer_2-2" data-name="Layer 2">
    <g>
      <path class="cls-1" d="M266.61,97.42l-73.36-59.78c-4.77-3.89-11.78-3.17-15.67,1.6l-39.78,48.81c-19.94,24.47-16.27,60.47,8.2,80.42l2.34,1.91-.64-.82c-.32-.41-.67-.79-1.06-1.14-16.56-14.53-18.77-39.68-4.74-56.9l28.98-35.56c4-4.91,11.23-5.65,16.14-1.65l50.1,40.83c4.91,4,5.65,11.23,1.65,16.14l-47.72,58.56c-4,4.91-11.23,5.65-16.14,1.65h0c-.27-.22-.56-.39-.88-.53l-.85-.35,10.51,8.57c4.77,3.89,11.78,3.17,15.67-1.6l68.85-84.49c3.89-4.77,3.17-11.78-1.6-15.67Z"/>
      <path class="cls-1" d="M0,180.21V25.43H68.55c10.17,0,19.27,2.25,27.31,6.74,8.03,4.5,14.37,10.65,19.02,18.46,4.64,7.81,6.97,16.8,6.97,26.98s-2.32,19.79-6.97,27.97c-4.64,8.18-10.98,14.63-19.02,19.35-8.04,4.72-17.14,7.08-27.31,7.08h-24.76v48.2H0ZM43.12,94.2h17.91c3.09,0,5.82-.63,8.18-1.88,2.36-1.25,4.24-3.06,5.64-5.42,1.4-2.36,2.1-5.23,2.1-8.62s-.7-6.19-2.1-8.4c-1.4-2.21-3.28-3.87-5.64-4.97-2.36-1.11-5.09-1.66-8.18-1.66h-17.91v30.96Z"/>
      <path class="cls-1" d="M324.66,182.42c-12.24,0-23-1.92-32.28-5.75-9.29-3.83-16.51-8.77-21.67-14.81l24.1-20.79c4.72,4.28,10.06,7.45,16.03,9.51,5.97,2.07,11.24,3.1,15.81,3.1,1.62,0,3.1-.14,4.42-.44,1.33-.29,2.39-.77,3.21-1.44,.81-.66,1.47-1.4,1.99-2.21,.51-.81,.77-1.73,.77-2.76,0-2.5-1.25-4.42-3.76-5.75-1.33-.59-3.5-1.36-6.52-2.32-3.02-.96-7.04-2.02-12.05-3.21-6.19-1.62-11.72-3.57-16.58-5.86-4.87-2.28-8.99-4.98-12.38-8.07-3.24-3.1-5.79-6.67-7.63-10.72-1.85-4.05-2.76-8.51-2.76-13.38,0-5.89,1.33-11.13,3.98-15.7,2.65-4.57,6.34-8.51,11.06-11.83,4.72-3.32,10.02-5.82,15.92-7.52,5.89-1.69,11.94-2.54,18.13-2.54,6.93,0,13.45,.7,19.57,2.1,6.12,1.4,11.86,3.39,17.25,5.97,5.38,2.58,10.21,5.71,14.48,9.4l-21.23,23.44c-2.51-2.21-5.42-4.27-8.73-6.19-3.32-1.91-6.74-3.5-10.28-4.75-3.54-1.25-6.85-1.88-9.95-1.88-1.92,0-3.54,.15-4.86,.44-1.33,.3-2.43,.74-3.32,1.33-.88,.59-1.55,1.33-1.99,2.21-.44,.88-.66,1.84-.66,2.87,0,1.33,.37,2.58,1.11,3.76,.74,1.18,1.91,2.14,3.54,2.88,1.33,.74,3.57,1.66,6.74,2.76,3.17,1.11,7.77,2.47,13.82,4.09,6.78,1.92,12.68,4.13,17.69,6.63,5.01,2.51,9.07,5.38,12.16,8.62,2.21,2.51,3.9,5.27,5.09,8.29,1.18,3.02,1.77,6.38,1.77,10.06,0,7.82-2.25,14.78-6.74,20.9-4.5,6.12-10.65,10.91-18.46,14.37-7.81,3.46-16.73,5.2-26.75,5.2Z"/>
      <path class="cls-1" d="M375.64,97.29V62.35h81.15v34.94h-81.15Zm19.46,82.92V32.5h41.13V180.21h-41.13Z"/>
      <path class="cls-2" d="M496.38,180.21L451.49,25.43h44l20.12,74.29c1.03,4.28,1.95,8.44,2.76,12.49,.81,4.06,1.44,7.82,1.88,11.28,.44,3.46,.81,6.67,1.11,9.62,.29,2.95,.51,5.38,.66,7.3h-4.2c.44-4.42,.85-8.73,1.22-12.94,.37-4.2,1-8.55,1.88-13.05,.88-4.49,2.21-9.4,3.98-14.7l20.79-57.05h33.83l20.56,57.05c2.06,5.6,3.65,10.72,4.75,15.37s1.95,9.03,2.54,13.16c.59,4.13,1.03,8.11,1.33,11.94l-3.76,.22c.15-2.21,.22-4.42,.22-6.63s.07-4.53,.22-6.96c.15-2.43,.37-5.05,.66-7.85,.29-2.8,.74-5.78,1.33-8.96,.59-3.17,1.33-6.6,2.21-10.28l20.12-74.29h42.67l-45.11,154.78h-34.05l-34.94-85.57h5.31l-31.4,85.57h-35.82Z"/>
      <path class="cls-1" d="M700.82,40.02c-7.52,0-13.34-1.73-17.47-5.2-4.13-3.46-6.19-8.36-6.19-14.7,0-5.89,2.1-10.72,6.3-14.48s9.99-5.64,17.36-5.64,13.16,1.73,17.36,5.2c4.2,3.46,6.3,8.44,6.3,14.92,0,5.9-2.14,10.69-6.41,14.37-4.28,3.69-10.03,5.53-17.25,5.53Zm-20.56,140.19V62.35h41.13v117.85h-41.13Z"/>
      <path class="cls-1" d="M742.61,180.21V62.35h38.47l1.77,23.88-8.4,2.65c1.47-5.6,4.35-10.58,8.62-14.93,4.27-4.35,9.36-7.77,15.26-10.28,5.89-2.5,12.08-3.76,18.57-3.76,8.84,0,16.33,1.81,22.44,5.42,6.12,3.61,10.76,8.99,13.93,16.14,3.17,7.15,4.75,15.89,4.75,26.2v72.53h-41.13V111c0-3.83-.59-7.04-1.77-9.62-1.18-2.58-2.95-4.53-5.31-5.86-2.36-1.33-5.16-1.91-8.4-1.77-2.51,0-4.83,.37-6.96,1.11-2.14,.74-4.02,1.88-5.64,3.43-1.62,1.55-2.84,3.28-3.65,5.2-.81,1.92-1.22,4.06-1.22,6.41v70.31h-41.35Z"/>
      <path class="cls-1" d="M916.18,182.42c-12.24,0-23-1.92-32.28-5.75-9.29-3.83-16.51-8.77-21.67-14.81l24.1-20.79c4.72,4.28,10.06,7.45,16.03,9.51,5.97,2.07,11.24,3.1,15.81,3.1,1.62,0,3.1-.14,4.42-.44,1.33-.29,2.39-.77,3.21-1.44,.81-.66,1.47-1.4,1.99-2.21,.51-.81,.77-1.73,.77-2.76,0-2.5-1.25-4.42-3.76-5.75-1.33-.59-3.5-1.36-6.52-2.32-3.02-.96-7.04-2.02-12.05-3.21-6.19-1.62-11.72-3.57-16.58-5.86-4.87-2.28-8.99-4.98-12.38-8.07-3.24-3.1-5.79-6.67-7.63-10.72-1.85-4.05-2.76-8.51-2.76-13.38,0-5.89,1.33-11.13,3.98-15.7,2.65-4.57,6.34-8.51,11.06-11.83,4.72-3.32,10.02-5.82,15.92-7.52,5.89-1.69,11.94-2.54,18.13-2.54,6.93,0,13.45,.7,19.57,2.1,6.12,1.4,11.86,3.39,17.25,5.97,5.38,2.58,10.21,5.71,14.48,9.4l-21.23,23.44c-2.51-2.21-5.42-4.27-8.73-6.19-3.32-1.91-6.74-3.5-10.28-4.75-3.54-1.25-6.85-1.88-9.95-1.88-1.92,0-3.54,.15-4.86,.44-1.33,.3-2.43,.74-3.32,1.33-.88,.59-1.55,1.33-1.99,2.21-.44,.88-.66,1.84-.66,2.87,0,1.33,.37,2.58,1.11,3.76,.74,1.18,1.91,2.14,3.54,2.88,1.33,.74,3.57,1.66,6.74,2.76,3.17,1.11,7.77,2.47,13.82,4.09,6.78,1.92,12.68,4.13,17.69,6.63,5.01,2.51,9.07,5.38,12.16,8.62,2.21,2.51,3.9,5.27,5.09,8.29,1.18,3.02,1.77,6.38,1.77,10.06,0,7.82-2.25,14.78-6.74,20.9-4.5,6.12-10.65,10.91-18.46,14.37-7.81,3.46-16.73,5.2-26.75,5.2Z"/>
    </g>
  </g>
</svg>